<svg width="118" height="148" viewBox="0 0 118 148" fill="none" xmlns="http://www.w3.org/2000/svg">
<path d="M30.3135 127.151L33.8605 141.654C34.3909 143.877 36.2917 145.247 38.1034 144.929C39.5503 144.675 40.7595 143.372 41.1244 141.654C41.7948 136.821 42.4651 131.988 43.1355 127.151H30.3135Z" fill="#C17052" stroke="black" stroke-width="6" stroke-miterlimit="10"/>
<path d="M72.8357 127.151L69.2886 141.654C68.7583 143.877 66.8575 145.247 65.0458 144.929C63.5989 144.675 62.3897 143.372 62.0248 141.654C61.3544 136.821 60.684 131.988 60.0137 127.151H72.8357Z" fill="#C17052" stroke="black" stroke-width="6" stroke-miterlimit="10"/>
<path d="M5.78073 82.1772C8.11857 78.541 12.8494 74.1751 15.5394 75.3885C18.7555 76.8396 17.436 85.5291 17.2366 86.8444C16.0613 94.5962 11.5426 99.3058 9.59934 101.27C7.43546 103.464 5.20794 105.713 3.65928 105.089C0.765627 103.922 2.46279 93.6245 2.8107 91.5116C3.42592 87.7905 3.89264 85.1133 5.78073 82.1772Z" fill="#C17052" stroke="black" stroke-width="4" stroke-miterlimit="10"/>
<path d="M91.9115 73.2928C89.7979 77.0656 88.1663 83.2939 90.5063 85.0981C93.2988 87.2533 100.348 82.0076 101.418 81.2135C107.71 76.5321 109.741 70.3331 110.563 67.6928C111.482 64.7521 112.422 61.7303 111.145 60.655C108.756 58.6484 100.465 64.9838 98.7618 66.2855C95.7628 68.5755 93.622 70.2475 91.9173 73.2943L91.9115 73.2928Z" fill="#C17052" stroke="black" stroke-width="4" stroke-miterlimit="10"/>
<path d="M9.25156 40.1722H94.5338C95.2806 40.2019 96.2607 40.3674 97.0796 41.0208C98.5222 42.1706 98.3949 43.9738 98.3524 50.3551C98.3143 55.8158 98.3906 57.5341 97.0796 58.4166C96.2777 58.9555 95.3018 58.9513 94.5338 58.8325C92.9767 77.3612 91.4238 95.8942 89.8666 114.423C89.7691 115.31 88.8993 122.111 83.078 125.454C80.6044 126.876 78.1775 127.13 76.7137 127.152H26.9148C25.7734 127.152 21.976 126.999 18.5859 124.182C14.0079 120.371 13.9187 114.801 13.9187 113.999C12.3616 95.7202 10.8087 77.4376 9.25156 59.1592C8.35631 59.2186 7.20224 59.1252 6.28153 58.4166C4.94502 57.3856 4.99593 55.7436 5.00866 49.5066C5.01715 43.6514 4.97896 42.073 6.28153 41.0208C7.23194 40.257 8.41995 40.1467 9.25156 40.1722Z" fill="#C17052"/>
<path d="M69.1015 57.2284L67.8032 114.423C67.8032 114.423 67.2092 124.606 56.8989 127.151H72.8353H80.7949L86.5228 122.514L89.6499 115.746L93.9309 66.0451L94.5377 56.2949L69.1057 57.2284H69.1015Z" fill="#AC5346"/>
<path d="M19.8583 41.021C19.8583 41.021 18.1611 42.2938 18.1611 45.2639V57.2288H33.0113V43.4691C33.0113 43.4691 32.7609 41.0125 34.7975 40.1682C36.8341 39.3238 19.8583 41.021 19.8583 41.021Z" fill="#DB9364"/>
<path d="M20.8262 57.9922L25.8031 114.423C25.8031 114.423 26.2528 122.484 34.7259 127.151H44.5228C44.5228 127.151 36.8346 122.484 35.9861 112.726L34.4968 57.2285L20.8262 57.9922Z" fill="#DB9364"/>
<path d="M8.82715 57.9922H95.8066" stroke="#823A37" stroke-width="4" stroke-miterlimit="10"/>
<path d="M6.48108 54.8061C6.48108 54.8061 6.90961 56.5796 8.6195 56.1341H71.4356V43.1551C71.4356 43.1551 71.4356 41.5173 70.1543 41.0761V39.748L95.7941 40.3972L97.958 42.332V57.9925H5.19972L5.00879 55.5741L5.19972 54.8061H6.48108Z" fill="#AC5346"/>
<path d="M9.25156 40.1722H94.5338C95.2806 40.2019 96.2607 40.3674 97.0796 41.0208C98.5222 42.1706 98.3949 43.9738 98.3524 50.3551C98.3143 55.8158 98.3906 57.5341 97.0796 58.4166C96.2777 58.9555 95.3018 58.9513 94.5338 58.8325C92.9767 77.3612 91.4238 95.8942 89.8666 114.423C89.7691 115.31 88.8993 122.111 83.078 125.454C80.6044 126.876 78.1775 127.13 76.7137 127.152H26.9148C25.7734 127.152 21.976 126.999 18.5859 124.182C14.0079 120.371 13.9187 114.801 13.9187 113.999C12.3616 95.7202 10.8087 77.4376 9.25156 59.1592C8.35631 59.2186 7.20224 59.1252 6.28153 58.4166C4.94502 57.3856 4.99593 55.7436 5.00866 49.5066C5.01715 43.6514 4.97896 42.073 6.28153 41.0208C7.23194 40.257 8.41995 40.1467 9.25156 40.1722Z" stroke="black" stroke-width="4" stroke-miterlimit="10"/>
<path d="M64.6851 94.9663C64.5361 94.5779 60.0112 97.179 52.9439 97.45C44.436 97.7796 38.6737 94.4921 38.4931 94.9663C38.3079 95.4585 44.1198 99.7305 51.5891 99.7079C59.0222 99.6853 64.8613 95.4178 64.6851 94.9663Z" fill="black" stroke="black" stroke-width="2" stroke-miterlimit="10"/>
<path d="M48.1798 39.9348C47.2633 36.8969 46.4317 33.1123 46.1644 28.7166C46.0329 26.574 46.0541 24.584 46.1644 22.7766C45.0188 22.8741 41.8367 22.9972 38.5272 21.0794C34.8868 18.9664 33.4272 15.7418 33.0114 14.715C32.8078 14.2101 31.8828 11.7874 33.0114 9.19928C34.0764 6.76386 36.5458 5.1261 39.3758 4.95638C40.5086 4.86304 42.1549 4.86728 44.043 5.38067C47.0427 6.19531 49.0241 7.85004 49.983 8.77499C50.7934 7.83307 52.0451 6.56444 53.8016 5.38067C55.2357 4.41753 57.8621 2.644 61.4389 2.41064C62.682 2.33002 67.7353 1.99908 70.3489 5.38067C73.8451 9.9036 69.7337 16.8789 69.5004 17.2608C68.9106 18.2324 66.4497 22.1274 61.4389 23.2008C57.2214 24.1046 53.8738 22.4286 52.9531 21.928C52.6009 23.9858 52.3548 26.5824 52.5288 29.5652C52.7833 33.9311 53.8398 37.4782 54.7987 39.9348H48.1798Z" fill="#75A833"/>
<path d="M32.7996 9.41117C33.0287 10.3828 35.549 10.1028 38.3154 10.684C46.0332 12.3048 51.5405 19.6705 51.1841 19.2165C50.6834 18.5801 50.1403 17.7188 49.7712 16.6241C48.6765 13.3571 51.2647 11.0574 50.6198 8.98688C49.6439 5.84713 43.2117 5.66893 41.2854 5.59256C38.9688 5.50346 37.4074 5.90229 36.1939 6.44114C34.7938 7.06485 32.5705 8.44803 32.7996 9.41117Z" fill="#A9DB54" stroke="black" stroke-miterlimit="10"/>
<path d="M70.9854 6.86552C67.7396 7.90928 63.7725 9.49188 59.5296 11.957C55.8934 14.07 52.9361 16.3145 50.6195 18.3214C50.3819 17.6382 48.4217 11.6897 51.8924 6.86552C55.7279 1.53644 63.9974 0.645434 68.4397 3.89549C69.7041 4.82045 70.4932 5.96179 70.9854 6.86552Z" fill="#A9DB54" stroke="black" stroke-miterlimit="10"/>
<path d="M51.5105 7.19629C51.5105 7.19629 45.3031 17.7569 55.7025 23.0265" stroke="black" stroke-width="3" stroke-miterlimit="10"/>
<path d="M50.6449 18.2959C50.3012 18.9663 49.5375 20.2307 48.0737 21.2914C46.6141 22.3521 45.18 22.6873 44.4375 22.8061" stroke="black" stroke-width="3" stroke-miterlimit="10"/>
<path d="M48.1798 39.9348C47.2633 36.8969 46.4317 33.1123 46.1644 28.7166C46.0329 26.574 46.0541 24.584 46.1644 22.7766C45.0188 22.8741 41.8367 22.9972 38.5272 21.0794C34.8868 18.9664 33.4272 15.7418 33.0114 14.715C32.8078 14.2101 31.8828 11.7874 33.0114 9.19928C34.0764 6.76386 36.5458 5.1261 39.3758 4.95638C40.5086 4.86304 42.1549 4.86728 44.043 5.38067C47.0427 6.19531 49.0241 7.85004 49.983 8.77499C50.7934 7.83307 52.0451 6.56444 53.8016 5.38067C55.2357 4.41753 57.8621 2.644 61.4389 2.41064C62.682 2.33002 67.7353 1.99908 70.3489 5.38067C73.8451 9.9036 69.7337 16.8789 69.5004 17.2608C68.9106 18.2324 66.4497 22.1274 61.4389 23.2008C57.2214 24.1046 53.8738 22.4286 52.9531 21.928C52.6009 23.9858 52.3548 26.5824 52.5288 29.5652C52.7833 33.9311 53.8398 37.4782 54.7987 39.9348H48.1798Z" stroke="black" stroke-width="4" stroke-miterlimit="10"/>
<path d="M37.0423 82.6012C40.9087 82.6012 44.0431 79.4668 44.0431 75.6004C44.0431 71.734 40.9087 68.5996 37.0423 68.5996C33.1759 68.5996 30.0415 71.734 30.0415 75.6004C30.0415 79.4668 33.1759 82.6012 37.0423 82.6012Z" fill="black"/>
<path d="M66.3182 82.6012C70.1846 82.6012 73.3189 79.4668 73.3189 75.6004C73.3189 71.734 70.1846 68.5996 66.3182 68.5996C62.4517 68.5996 59.3174 71.734 59.3174 75.6004C59.3174 79.4668 62.4517 82.6012 66.3182 82.6012Z" fill="black"/>
<path d="M68.2274 77.9343C69.6334 77.9343 70.7731 76.7945 70.7731 75.3885C70.7731 73.9825 69.6334 72.8428 68.2274 72.8428C66.8214 72.8428 65.6816 73.9825 65.6816 75.3885C65.6816 76.7945 66.8214 77.9343 68.2274 77.9343Z" fill="white"/>
<path d="M38.9515 77.9343C40.3575 77.9343 41.4972 76.7945 41.4972 75.3885C41.4972 73.9825 40.3575 72.8428 38.9515 72.8428C37.5455 72.8428 36.4058 73.9825 36.4058 75.3885C36.4058 76.7945 37.5455 77.9343 38.9515 77.9343Z" fill="white"/>
</svg>
